<svg id="Layer_1" data-name="Layer 1" xmlns="http://www.w3.org/2000/svg" xmlns:xlink="http://www.w3.org/1999/xlink" viewBox="0 0 688.39 456"><defs><style>.cls-1{fill:#fff;}.cls-1,.cls-10,.cls-8{fill-rule:evenodd;}.cls-2{fill:#d2e3fc;}.cls-10,.cls-3,.cls-5{fill:#4682f4;}.cls-4{fill:none;stroke:#4682f4;stroke-linecap:round;stroke-width:8px;}.cls-5{opacity:0.26;}.cls-10,.cls-5,.cls-6,.cls-7{isolation:isolate;}.cls-6{fill:#ceead6;opacity:0.7;}.cls-7{fill:#fabd04;opacity:0.19;}.cls-8{fill:#e8f0fe;}.cls-9{mask:url(#mask);}.cls-10{opacity:0.31;}.cls-11{mask:url(#mask-2-2);}</style><mask id="mask" x="481.29" y="96.21" width="144.07" height="191.79" maskUnits="userSpaceOnUse"><g id="mask-2"><path id="path-1" class="cls-1" d="M497.5,104.31h82.39a32.41,32.41,0,0,1,32.41,32.42V271.79A16.2,16.2,0,0,1,596.1,288H497.5a16.21,16.21,0,0,1-16.21-16.21V120.52A16.21,16.21,0,0,1,497.5,104.31Z"/></g></mask><mask id="mask-2-2" x="481.29" y="104.31" width="131.01" height="183.69" maskUnits="userSpaceOnUse"><g id="mask-2-3" data-name="mask-2"><path id="path-1-2" data-name="path-1" class="cls-1" d="M497.5,104.31h82.39a32.41,32.41,0,0,1,32.41,32.42V271.79A16.2,16.2,0,0,1,596.1,288H497.5a16.21,16.21,0,0,1-16.21-16.21V120.52A16.21,16.21,0,0,1,497.5,104.31Z"/></g></mask></defs><title>Artboard 1</title><g id="R3"><g id="Octopus"><g id="Blue-Doctopus"><g id="Group-3-Copy"><g id="Group-4-Copy-2"><circle id="Oval" class="cls-2" cx="275.08" cy="164.5" r="164.5"/><path id="Combined-Shape" class="cls-2" d="M405.89,267q-23.76,25.5-24.73,62.12-.95,36,30.45,51c6.26,1,10.76-.14,14.46-2.87a18.38,18.38,0,0,0,4.06-4.16,12.9,12.9,0,0,0,1-1.6h0l.08-.16c1.21-4.44,1.33-7.68.22-10.35h0l-.38,0a20,20,0,0,1-11.26-37.56c15.82-8.46,31.94-2.84,42.68,11.75a49.27,49.27,0,0,1,9.66,27.18,61.69,61.69,0,0,1-2.51,20.13c-2.6,9.21-9.93,19.66-19.79,26.93-13.2,9.73-30,13.49-48.6,9.39-13.77-3-25-8.81-34.14-17.18-7.2-6.61-12.39-14-17.6-23.79h0l-.24-.45c-.71-1.34-1.42-2.73-2.28-4.42h0l-2.06-4.11-.69-1.34-.92-1.78c-6.22-12.11-11.42-29.79-16-53.58h0l-.39-2.06-.38-2a20,20,0,0,1,7.27-19.34q-.36-6.41-.6-13.81h0Z"/><path class="cls-2" d="M412.28,105.34A20.94,20.94,0,0,1,428.69,130c-5,24.78-8.14,45.42-9.55,61.61l20.49-12.18q-8,47.9.87,65c3.79,7.33,15,7.79,26.8,7.21,1.2-.2,2.46-.44,3.78-.71l.8-.16,6.5-1.35L480,249l.51-.09,1-.19.89-.17a79.12,79.12,0,0,1,10.71-1.23A51.72,51.72,0,0,1,508.65,249c27,7.17,42.37,26.93,40.24,56.06-1.14,15.48-8.16,27.64-19.49,34.95A45.94,45.94,0,0,1,503,347.1c-9.57-.34-18.8-4.17-28-10.78a20.94,20.94,0,0,1,24.13-34.22l.31.22.36.26a23.83,23.83,0,0,0,4.19,2.43,5.73,5.73,0,0,0,.71.25,6.09,6.09,0,0,0,1.77-.31l.13-.05.09-.23.1-.3a12,12,0,0,0,.38-2.38c.58-7.92-.9-10.18-8.22-12.27l-.32-.09-.68-.18a10.13,10.13,0,0,0-3.08-.26,21,21,0,0,0-4.35.49l-.31.06-1.28.25L483.73,291c-10.29,7-25.15,12.42-45.36,14-24,1.88-37.86-6-45.8-15l-14.92,7.28-7.89-16.18,13.94-6.8a42.83,42.83,0,0,1-1.66-6.83q-2-13.19-3.14-32.75l-.11-.44c-4.85-21.22-2.22-55.51,7.29-104.79l.29-1.5.61-3.08.63-3.19A20.94,20.94,0,0,1,412.28,105.34Z"/><path class="cls-2" d="M153.1,181.05l.67,4,.45,2.81c4.79,30,6.54,50,5,62l-.12,1-.12,1c-.08.69-.16,1.48-.25,2.37l-.47,5.1c-.17,1.89-.35,3.66-.53,5.35l12.63,9.81q-16,49-47,54c-11.88,1.92-24.2,2.11-32,0-.68-.19-1.41-.42-2.17-.7a54.92,54.92,0,0,1-18.72-9.72,21.39,21.39,0,0,1-3.34-3.25l-1-1.17-1-1.2c-6-7.08-11.08-12.29-15.17-15.56a28.78,28.78,0,0,0-3.17-2.26l-.2-.12c-1.42,0-2.65.13-3.71.25.23.52.49,1.09.8,1.7l.19.37A21,21,0,0,1,6.66,316.21C-.45,302.52-2.24,289,3.12,276.47c4.21-9.81,12-16.62,21.81-20.33,7-2.62,14.59-3.64,23.46-3.64,9.74,0,18.66,4.23,27.87,11.6a124.19,124.19,0,0,1,11.62,10.76q14.13,10.53,21.51,3.64c1.89-1.76,3.63-4.68,5.08-8.5a100,100,0,0,0,1.77-12.1l.72-7.7.12-1.22.12-1.14c.1-.93.2-1.79.31-2.62l.06-.5c1-7.18-.92-26.88-5.9-56.77a21,21,0,0,1,41.43-6.9Z"/><path class="cls-2" d="M235.8,296.15l6.34.39q3.69,43.74-4,60.67c-.58,1.3-1.24,2.57-1.95,3.83-8.51,22.8-39.92,38.22-65.85,30a72.93,72.93,0,0,1-21.54-10.85l-.66-.48c-1.6-1.17-6.16-4.7-6-4.56l-.63-.47c-2.75-2-4.09-2.7-6.09-3.1a26.89,26.89,0,0,0-5.83-.65l-.37,0-.34,0a3.16,3.16,0,0,0-.61.12h0s-.06.05-.31.32a16.09,16.09,0,0,0-2.44,4c-1.54,3.29-1.38,5.27.94,8.62l.21.3a20,20,0,0,1-32.55,23.24c-10.81-15.13-12.6-32.46-4.85-49.08,10.76-23.06,29.45-31.07,54.05-26.15a49.38,49.38,0,0,1,11.82,3.86l-.06-.05q15.48,7.74,27.54,1.81t-3.36-45.34L200.1,294a20,20,0,0,1,35.7,2.2Z"/><path class="cls-2" d="M302.5,278a23.5,23.5,0,0,1,23.07,23.92c-.88,48.89-7.06,85.22-19.45,109.81-9.51,18.87-22.88,31.54-38.81,38.38a71.89,71.89,0,0,1-18.94,5.17A85.42,85.42,0,0,1,236,456c-11.76,0-22.91-4.61-33.42-12.81a23.5,23.5,0,0,1,28.61-37.29l.31.24a20,20,0,0,0,4.07,2.59l.2.09.42.16.07,0c5.39,0,8.72-.48,12.48-2.09,5.7-2.44,10.8-7.28,15.37-16.34a79.68,79.68,0,0,0,4.42-10.86,71.84,71.84,0,0,0,1.71-11.51q1.89-26.31-21.78-49.95l29.65-3.12q.3-6.78.43-14.05A23.51,23.51,0,0,1,302.5,278Z"/></g></g><circle id="Oval-Copy-2" class="cls-3" cx="305.08" cy="159.5" r="15"/><circle id="Oval-Copy-3" class="cls-3" cx="195.39" cy="159.5" r="15"/><path id="Path-6-Copy" class="cls-4" d="M225.58,213.5l6.61,3.38a41.62,41.62,0,0,0,43.39-3.38h0"/><circle id="Oval-Copy-4" class="cls-5" cx="339.58" cy="217.5" r="29"/><circle id="Oval-Copy-5" class="cls-5" cx="161.58" cy="213.5" r="29"/><path id="Oval-Copy-6" class="cls-1" d="M158.81,75.06c1.52,1.19,4.51-.08,6.67-2.84s9.56-13.67,8-14.86S162.12,65.15,160,67.91,157.29,73.87,158.81,75.06Z"/></g></g></g><g id="mask-2-8" data-name="mask-2"><path id="path-1-7" data-name="path-1" class="cls-1" d="M497.5,104.31h82.39a32.41,32.41,0,0,1,32.41,32.42V271.79A16.2,16.2,0,0,1,596.1,288H497.5a16.21,16.21,0,0,1-16.21-16.21V120.52A16.21,16.21,0,0,1,497.5,104.31Z"/></g><g id="R3-2" data-name="R3"><g id="Accessories"><g id="Documents"><rect id="Rectangle-Copy-5" class="cls-6" x="506.96" y="128.17" width="184.59" height="120.66" rx="21.16" transform="translate(151.48 629.11) rotate(-62)"/><rect id="Rectangle" class="cls-7" x="481.29" y="128.17" width="184.59" height="120.66" rx="21.16" transform="translate(316.59 734.84) rotate(-83)"/><path class="cls-8" d="M497.5,104.31h82.39a32.41,32.41,0,0,1,32.41,32.42V271.79A16.2,16.2,0,0,1,596.1,288H497.5a16.21,16.21,0,0,1-16.21-16.21V120.52A16.21,16.21,0,0,1,497.5,104.31Z"/><g class="cls-9"><path class="cls-10" d="M584.84,96.21h40.52v41.42a11.7,11.7,0,0,1-11.7,11.7H589.79a16.65,16.65,0,0,1-16.65-16.66V107.91A11.7,11.7,0,0,1,584.84,96.21Z"/></g><g class="cls-11"><path id="Oval-2" data-name="Oval" class="cls-1" d="M491.3,167.79c1.3,0,1.26-12,2.36-23.64s-1.79-23.63-2.36-23.63c-1.3,0-2.35,10.58-2.35,23.63S490,167.79,491.3,167.79Z"/></g><g class="cls-11"><rect class="cls-2" x="513.26" y="167.79" width="67.08" height="10.81"/></g><g class="cls-11"><rect id="Rectangle-Copy-26" class="cls-2" x="515.06" y="191.2" width="67.08" height="10.81"/></g><g class="cls-11"><rect id="Rectangle-Copy-27" class="cls-2" x="515.06" y="214.61" width="67.08" height="10.81"/></g><g class="cls-11"><rect id="Rectangle-Copy-28" class="cls-2" x="514.61" y="238.02" width="39.17" height="10.81"/></g></g></g></g></svg>